<svg width="17" height="16" viewBox="0 0 17 16" fill="none" xmlns="http://www.w3.org/2000/svg">
<path d="M16.9376 9.62516C16.9376 8.91654 16.514 8.30535 15.9069 8.03048C15.989 7.82792 16.0346 7.60679 16.0346 7.37517C16.0346 6.41023 15.2496 5.62517 14.2846 5.62517H11.5667L11.7451 5.09524C12.027 4.25849 11.9596 3.36537 11.5556 2.58031C11.1515 1.79525 10.4637 1.2215 9.61903 0.964692C9.30084 0.86788 8.96266 1.03732 8.84947 1.35L7.89278 3.99412C7.64441 4.68055 7.15454 5.25086 6.51342 5.59999L5.75361 6.01373C5.50117 5.7733 5.15998 5.62517 4.78467 5.62517H2.09374C1.31837 5.62517 0.6875 6.25598 0.6875 7.03142V14.4689C0.6875 15.2443 1.31837 15.8751 2.09374 15.8751H4.78467C5.2148 15.8752 5.60017 15.6809 5.85836 15.3758L6.14392 15.4878C6.79948 15.7449 7.48897 15.8753 8.19328 15.8753H13.5001C14.4651 15.8753 15.2501 15.0902 15.2501 14.1253C15.2501 13.8895 15.203 13.6646 15.1181 13.4591C15.7123 13.179 16.1246 12.5745 16.1246 11.8753C16.1246 11.6298 16.0736 11.3961 15.9819 11.1838C16.5486 10.8937 16.9376 10.3042 16.9376 9.62516ZM4.94098 14.4689C4.94098 14.555 4.87092 14.6251 4.78473 14.6251H2.09381C2.00762 14.6251 1.93756 14.5551 1.93756 14.4689V7.03142C1.93756 6.94529 2.00762 6.87517 2.09381 6.87517H4.78473C4.84823 6.87517 4.90273 6.91336 4.92717 6.96786C4.93055 6.98429 4.9348 7.00061 4.93955 7.01686C4.93998 7.02173 4.94098 7.02642 4.94098 7.03142V14.4689ZM15.1876 10.1253H12.3751C12.03 10.1253 11.7501 10.4051 11.7501 10.7503C11.7501 11.0955 12.03 11.3753 12.3751 11.3753H14.3746C14.6503 11.3753 14.8746 11.5996 14.8746 11.8753C14.8746 12.151 14.6503 12.3753 14.3746 12.3753H12.3751C12.03 12.3753 11.7501 12.6551 11.7501 13.0003C11.7501 13.3455 12.03 13.6253 12.3751 13.6253H13.5001C13.7758 13.6253 14.0001 13.8496 14.0001 14.1253C14.0001 14.401 13.7758 14.6253 13.5001 14.6253H13.0376H8.19322C7.64579 14.6253 7.10985 14.5239 6.60029 14.3241L6.19092 14.1635V7.19892L7.11123 6.69779C8.02085 6.20248 8.71591 5.39336 9.06828 4.41943L9.79315 2.41606C10.0657 2.60019 10.2891 2.85093 10.4443 3.15243C10.6923 3.63431 10.7336 4.18255 10.5606 4.69624L10.1045 6.05067C10.0402 6.24142 10.0718 6.45136 10.1892 6.6148C10.3065 6.77823 10.4955 6.87517 10.6967 6.87517H14.2846C14.5603 6.87517 14.7846 7.09948 14.7846 7.37517C14.7846 7.65085 14.5603 7.87517 14.2846 7.87517H12.3751C12.03 7.87517 11.7501 8.15498 11.7501 8.50016C11.7501 8.84535 12.03 9.12516 12.3751 9.12516L15.1876 9.12522C15.4633 9.12522 15.6876 9.34953 15.6876 9.62522C15.6876 9.90091 15.4633 10.1253 15.1876 10.1253Z" fill="#F7AB3A"/>
</svg>
